<svg id="Layer_1" data-name="Layer 1" xmlns="http://www.w3.org/2000/svg" viewBox="0 0 658 270"><title>akka-alpakka-reverse</title><g id="akka-alpakka-reverse"><path d="M422.94,211.26v-5h5v26.2c0,2.95.67,4.22,2.55,4.22.53,0,1.14-.07,1.74-.13v3.75a8.43,8.43,0,0,1-3.15.53,6.22,6.22,0,0,1-3.55-.93,6.66,6.66,0,0,1-2.28-4.83c-2.54,4-6.63,6-12.26,6a16.19,16.19,0,0,1-12.13-5.09,18.92,18.92,0,0,1,0-25.52A16.26,16.26,0,0,1,411,205.23C417.05,205.23,421,207.84,422.94,211.26Zm-3,21.37a13.28,13.28,0,0,0,3.62-9.51,13,13,0,0,0-3.62-9.45,11.69,11.69,0,0,0-9-3.82,11.33,11.33,0,0,0-8.71,3.82,13.42,13.42,0,0,0-3.42,9.45,13.71,13.71,0,0,0,3.42,9.51,11.51,11.51,0,0,0,8.71,3.75A11.88,11.88,0,0,0,419.93,232.63Z" fill="#fff"/><path d="M437.55,193.3h5v37.86c0,3.75,1.07,5.22,4.22,5.22a19.38,19.38,0,0,0,2.41-.13v4.22a6.94,6.94,0,0,1-3.08.53,9.73,9.73,0,0,1-5.5-1.47c-1.87-1.14-3-3.95-3-8Z" fill="#fff"/><path d="M454.9,252.93v-46.7h5v5c1.94-3.42,5.9-6,12-6A16.24,16.24,0,0,1,484,210.39a18.89,18.89,0,0,1,0,25.52A16.18,16.18,0,0,1,471.85,241c-6.09,0-10.05-2.61-12-6v18Zm25.6-20.3a13.48,13.48,0,0,0,3.48-9.51,13.2,13.2,0,0,0-3.48-9.45,11.09,11.09,0,0,0-8.65-3.82,11.91,11.91,0,0,0-9,3.82,13.21,13.21,0,0,0-3.55,9.45,13.49,13.49,0,0,0,3.55,9.51,12.11,12.11,0,0,0,9,3.75A11.26,11.26,0,0,0,480.5,232.63Z" fill="#fff"/><path d="M522.71,211.26v-5h4.95v26.2c0,2.95.67,4.22,2.55,4.22.54,0,1.14-.07,1.74-.13v3.75a8.39,8.39,0,0,1-3.15.53,6.22,6.22,0,0,1-3.55-.93A6.66,6.66,0,0,1,523,235c-2.54,4-6.63,6-12.26,6a16.21,16.21,0,0,1-12.13-5.09,18.92,18.92,0,0,1,0-25.52,16.27,16.27,0,0,1,12.13-5.16C516.81,205.23,520.76,207.84,522.71,211.26Zm-3,21.37a13.28,13.28,0,0,0,3.62-9.51,13,13,0,0,0-3.62-9.45,11.68,11.68,0,0,0-9-3.82,11.33,11.33,0,0,0-8.71,3.82,13.42,13.42,0,0,0-3.42,9.45,13.71,13.71,0,0,0,3.42,9.51,11.51,11.51,0,0,0,8.71,3.75A11.87,11.87,0,0,0,519.69,232.63Z" fill="#fff"/><path d="M537.24,240V193.3h5v29.61l14.47-16.68h5.7L549.57,221l14.61,19h-5.9l-11.86-15.41-4.22,4.89V240Z" fill="#fff"/><path d="M568.46,240V193.3h5v29.61l14.48-16.68h5.69L580.79,221l14.61,19h-5.9l-11.86-15.41-4.22,4.89V240Z" fill="#fff"/><path d="M625.28,211.26v-5h5v26.2c0,2.95.67,4.22,2.55,4.22.53,0,1.13-.07,1.74-.13v3.75a8.47,8.47,0,0,1-3.15.53,6.2,6.2,0,0,1-3.55-.93,6.62,6.62,0,0,1-2.28-4.83c-2.55,4-6.63,6-12.26,6a16.18,16.18,0,0,1-12.13-5.09,18.89,18.89,0,0,1,0-25.52,16.24,16.24,0,0,1,12.13-5.16C619.38,205.23,623.34,207.84,625.28,211.26Zm-3,21.37a13.27,13.27,0,0,0,3.61-9.51,13,13,0,0,0-3.61-9.45,11.69,11.69,0,0,0-9-3.82,11.3,11.3,0,0,0-8.71,3.82,13.42,13.42,0,0,0-3.42,9.45,13.71,13.71,0,0,0,3.42,9.51,11.48,11.48,0,0,0,8.71,3.75A11.88,11.88,0,0,0,622.27,232.63Z" fill="#fff"/><g id="akka"><path d="M349.64,105.46V93.34h19.92v58.44c0,7.13,1.66,9.79,6.14,9.79,1.17,0,2.66-.17,4.15-.33v16.1a28.71,28.71,0,0,1-9.79,1.33c-4.81,0-8.63-.83-11.62-2.66a15.41,15.41,0,0,1-6.81-10.12C345.82,174.68,336.2,179,322.92,179A39.74,39.74,0,0,1,293,166.38c-8-8.46-12-18.75-12-31.2s4-22.75,12-31.05a39.77,39.77,0,0,1,29.88-12.61C336.36,91.52,346.49,97.49,349.64,105.46Zm-6,48a24.42,24.42,0,0,0,7.47-18.26,24.39,24.39,0,0,0-7.47-18.26,24.79,24.79,0,0,0-18.1-7.31,24,24,0,0,0-17.76,7.31c-4.65,4.81-7,11-7,18.26s2.32,13.44,7,18.26a24,24,0,0,0,17.76,7.3A24.82,24.82,0,0,0,343.67,153.44Z" fill="#fff"/><path d="M388.48,177V61.31h19.76v67.56l30.87-35.53H462l-32.7,37.35L465.51,177H442.93l-26.39-33.7-8.3,9.3V177Z" fill="#fff"/><path d="M470.82,177V61.31h19.75v67.56l30.88-35.53h22.91l-32.7,37.35L547.84,177H525.27l-26.4-33.7-8.3,9.3V177Z" fill="#fff"/><path d="M607.87,105.46V93.34h19.92v58.44c0,7.13,1.66,9.79,6.14,9.79,1.17,0,2.66-.17,4.15-.33v16.1a28.71,28.71,0,0,1-9.79,1.33c-4.81,0-8.63-.83-11.62-2.66a15.41,15.41,0,0,1-6.81-10.12c-5.81,8.79-15.43,13.11-28.71,13.11a39.74,39.74,0,0,1-29.88-12.62c-8-8.46-12-18.75-12-31.2s4-22.75,12-31.05a39.77,39.77,0,0,1,29.88-12.61C594.59,91.52,604.72,97.49,607.87,105.46Zm-6,48a24.42,24.42,0,0,0,7.47-18.26,24.39,24.39,0,0,0-7.47-18.26,24.79,24.79,0,0,0-18.1-7.31A24,24,0,0,0,566,116.92c-4.65,4.81-7,11-7,18.26s2.32,13.44,7,18.26a24,24,0,0,0,17.76,7.3A24.82,24.82,0,0,0,601.9,153.44Z" fill="#fff"/></g><g id="icon"><path d="M230.26,212.82c35.88,28.67,58.91-57,1.74-72.82-48-13.29-96.33,9.5-144.66,62.74C87.34,202.74,176.67,170,230.26,212.82Z" fill="#fff" opacity="0.5"/><path d="M88.08,202c34.41-35.69,91.64-75.53,144.9-60.75A46.09,46.09,0,0,1,259.9,160.6L209.48,58.78c-7.2-11.46-25.58-9.15-35.95-.26L40.29,170.07a27.4,27.4,0,0,0-1.56,40.15l0,0a27.4,27.4,0,0,0,36.51,2L88.14,202Z" fill="#fff"/></g></g></svg>